<?xml version="1.0" encoding="UTF-8"?>
<svg width="256px" height="287px" viewBox="0 0 256 287" version="1.1" xmlns="http://www.w3.org/2000/svg" preserveAspectRatio="xMidYMid">
    <g>
        <path d="M203.24,231.531 L152.441,231.531 L173.176,286.826 C175.864,286.826 178.553,286.826 180.928,286.826 C182.99,286.826 185.053,286.826 186.803,286.826 C189.491,286.826 191.867,286.826 194.242,286.513 C195.992,286.513 197.742,286.201 199.492,286.201 C200.617,285.888 201.742,285.888 202.866,285.576 C204.304,285.263 205.741,285.263 206.866,284.951 L203.24,231.531 Z M256,137.051 L192.054,137.051 L212.789,192.346 L255.687,192.346 L256,137.051 Z M255.687,96.928 L172.863,96.928 L193.598,152.223 L255.687,152.223 L255.687,96.928 Z M254.75,56.805 L153.691,56.805 L174.425,112.1 L254.75,112.1 L254.75,56.805 Z M252.686,16.682 L134.394,16.682 L155.129,71.977 L252.686,71.977 L252.686,16.682 Z M249.06,0 L99.91,0 L99.91,0.312 L120.645,55.607 L249.06,55.607 L249.06,0 Z M99.91,231.531 L49.111,231.531 L45.485,284.951 C46.61,285.263 48.047,285.263 49.485,285.576 C50.61,285.888 51.735,285.888 52.859,286.201 C54.609,286.201 56.359,286.513 58.109,286.513 C60.484,286.826 62.86,286.826 65.548,286.826 C67.298,286.826 69.361,286.826 71.423,286.826 C73.798,286.826 76.487,286.826 79.175,286.826 L99.91,231.531 Z M99.91,191.721 L39.797,191.721 L36.171,226.844 L99.91,226.844 L99.91,191.721 Z M99.91,151.598 L30.483,151.598 L26.857,186.721 L99.91,186.721 L99.91,151.598 Z M99.91,111.475 L20.857,111.475 L17.231,146.598 L99.91,146.598 L99.91,111.475 Z M99.91,71.352 L11.543,71.352 L7.917,106.475 L99.91,106.475 L99.91,71.352 Z M99.91,31.229 L1.917,31.229 L0.042,50.526 L0.042,66.352 L99.91,66.352 L99.91,31.229 Z" fill="#EB5424"></path>
    </g>
</svg>
