<?xml version="1.0" encoding="UTF-8" standalone="no"?>
<svg width="256px" height="256px" viewBox="0 0 256 256" version="1.1" xmlns="http://www.w3.org/2000/svg">
    <g>
        <rect fill="#563D7C" x="0" y="0" width="256" height="256" rx="28"></rect>
        <path d="M131.975,144.216 C131.975,155.034 123.406,162.938 109.578,162.938 L89.031,162.938 L89.031,125.494 L109.578,125.494 C123.406,125.494 131.975,133.398 131.975,144.216 Z M118.719,144.216 C118.719,138.141 114.844,135.088 108.281,135.088 L102.287,135.088 L102.287,152.344 L108.281,152.344 C114.844,152.344 118.719,149.291 118.719,144.216 Z M133.272,171.741 L133.272,125.494 L146.528,125.494 L146.528,171.741 L133.272,171.741 Z M157.825,171.741 L157.825,125.494 L171.081,125.494 L171.081,171.741 L157.825,171.741 Z" fill="#FFFFFF"></path>
    </g>
</svg>
