<?xml version="1.0" encoding="UTF-8"?>
<svg width="24px" height="24px" viewBox="0 0 24 24" version="1.1" xmlns="http://www.w3.org/2000/svg">
    <g stroke="none" stroke-width="1" fill="none" fill-rule="evenodd">
        <!-- Flask -->
        <path d="M9,2 L15,2 C15.5522847,2 16,2.44771525 16,3 L16,8 L19,16 L19,19 C19,20.6568542 17.6568542,22 16,22 L8,22 C6.34314575,22 5,20.6568542 5,19 L5,16 L8,8 L8,3 C8,2.44771525 8.44771525,2 9,2 Z" fill="#2196F3"/>
        <!-- Liquid -->
        <path d="M8,8 L16,8 L13,16 L11,16 L8,8 Z" fill="#FFFFFF" opacity="0.8"/>
        <!-- Bubbles -->
        <circle fill="#FFFFFF" cx="11" cy="12" r="1"/>
        <circle fill="#FFFFFF" cx="13" cy="14" r="0.8"/>
        <circle fill="#FFFFFF" cx="12" cy="16" r="0.6"/>
        <!-- Flask neck -->
        <rect fill="#2196F3" x="11" y="2" width="2" height="6"/>
    </g>
</svg>
