<?xml version="1.0" encoding="UTF-8"?>
<svg width="256px" height="256px" viewBox="0 0 256 256" version="1.1" xmlns="http://www.w3.org/2000/svg" preserveAspectRatio="xMidYMid">
    <g>
        <path d="M249.868148,0 L81.613615,0 C77.8351894,0 74.7721673,3.06302214 74.7721673,6.84144766 L74.7721673,74.7721673 C74.7721673,78.5505928 77.8351894,81.613615 81.613615,81.613615 L249.868148,81.613615 C253.646573,81.613615 256.709595,78.5505928 256.709595,74.7721673 L256.709595,6.84144766 C256.709595,3.06302214 253.646573,0 249.868148,0" fill="#8E75FF"></path>
        <path d="M174.395134,174.395134 L6.14060091,174.395134 C2.36217539,174.395134 -0.700846766,177.458156 -0.700846766,181.236582 L-0.700846766,249.167301 C-0.700846766,252.945727 2.36217539,256.008749 6.14060091,256.008749 L174.395134,256.008749 C178.173559,256.008749 181.236582,252.945727 181.236582,249.167301 L181.236582,181.236582 C181.236582,177.458156 178.173559,174.395134 174.395134,174.395134" fill="#8E75FF"></path>
        <path d="M249.868148,174.395134 L212.131641,174.395134 C208.353216,174.395134 205.290194,177.458156 205.290194,181.236582 L205.290194,249.167301 C205.290194,252.945727 208.353216,256.008749 212.131641,256.008749 L249.868148,256.008749 C253.646573,256.008749 256.709595,252.945727 256.709595,249.167301 L256.709595,181.236582 C256.709595,177.458156 253.646573,174.395134 249.868148,174.395134" fill="#8E75FF"></path>
        <path d="M43.8771079,87.2614671 L6.14060091,87.2614671 C2.36217539,87.2614671 -0.700846766,90.3244893 -0.700846766,94.1029148 L-0.700846766,161.712741 C-0.700846766,165.491166 2.36217539,168.554188 6.14060091,168.554188 L43.8771079,168.554188 C47.6555334,168.554188 50.7185556,165.491166 50.7185556,161.712741 L50.7185556,94.1029148 C50.7185556,90.3244893 47.6555334,87.2614671 43.8771079,87.2614671" fill="#8E75FF"></path>
    </g>
</svg>
